<?xml version="1.0" encoding="UTF-8"?>
<svg id="Layer_2" data-name="Layer 2" xmlns="http://www.w3.org/2000/svg" viewBox="0 0 278.53 70">
    <defs>
        <style>
            .cls-1 {
            fill: #fff;
            }
        </style>
    </defs>
    <g id="Layer_1-2" data-name="Layer 1">
        <g>
            <path class="cls-1"
                  d="m67.54,32.97c6.1-2.49,9.61-7.23,10.45-14.08l.06-.51c.4-3.22.17-5.92-.68-8.02-.81-2-2.17-3.53-4.04-4.54-2.02-1.09-4.28-1.85-6.71-2.27-2.5-.43-5.54-.64-9.05-.64-4.44,0-9.2.11-14.16.32l-6.34,51.76h7.37l2.45-20h6.1c2.19,0,3.77-.02,4.69-.07l.87-.04.38.8,9.15,19.31h8.09l-9.81-21.56,1.16-.47Zm-12.88-4.27c-2.57,0-4.45-.03-5.75-.08l-1.46-.06,2.52-20.57h1.08c2.13,0,3.74.01,4.8.04,1.06.03,2.37.06,3.92.11,1.65.05,2.83.16,3.6.32.7.15,1.57.37,2.59.65,1.25.35,2.13.83,2.68,1.46.41.47.85,1.04,1.29,1.69.55.82.86,1.76.93,2.78.06.85.02,1.88-.13,3.05l-.05.44c-.47,3.84-2.04,6.55-4.65,8.05-2.46,1.41-6.28,2.12-11.36,2.12"/>
            <path class="cls-1"
                  d="m111.69,16l-3.84,31.33-.68.25c-5.21,1.91-9.11,2.88-11.62,2.88-2.87,0-4.79-.82-5.72-2.42-.84-1.44-1.03-3.71-.62-7.12l3.05-24.93h-7.08l-3.11,25.36c-.28,2.32-.39,4.33-.31,5.98.08,1.58.41,3.14.99,4.65.51,1.32,1.43,2.33,2.73,3,1.42.74,3.35,1.11,5.74,1.11,3.86,0,8.7-1.45,14.38-4.3l2.19-1.1-.52,4.29h6.78l4.78-39h-7.15Z"/>
            <path class="cls-1"
                  d="m130.81,55.04c2.27.56,4.9.84,7.82.84,5.5,0,9.96-1.46,13.26-4.34,3.3-2.88,5.39-7.84,6.24-14.76l.47-3.82c.8-6.49.2-11.19-1.77-13.98-1.9-2.67-5.07-4.02-9.45-4.02s-8.22,1.2-11.93,3.57l-2.32,1.49.49-4.02h-6.47l-6.61,54h7.05l1.87-15.29,1.34.33Zm2.38-32.07l.64-.27c3.61-1.54,6.9-2.32,9.79-2.32,3.28,0,5.62,1.03,6.94,3.07,1.25,1.92,1.58,5.09,1.02,9.69l-.47,3.85c-.62,5.05-1.89,8.54-3.76,10.38-1.9,1.88-4.69,2.83-8.27,2.83-2.25,0-4.89-.28-7.84-.84l-1.25-.22,3.2-26.16Z"/>
            <path class="cls-1"
                  d="m179.52,16l1.35-11h-7.45l-1.35,11h-6.94l-.55,4.49,7.28.63-2.82,23c-.46,3.74-.08,6.36,1.12,7.8,1.19,1.41,3.57,2.13,7.08,2.13,2.19,0,4.57-.3,7.08-.9l.49-3.96c-1.29.09-2.81.14-4.53.14-2.14,0-3.42-.43-4.02-1.36-.53-.81-.63-2.13-.35-4.39l2.76-22.57h9.6l.61-5h-9.33Z"/>
            <path class="cls-1"
                  d="m211.08,14.61c-11.77,0-18.55,6.64-20.15,19.75l-.32,2.59c-.86,6.99-.07,11.95,2.34,14.75,2.4,2.78,7.17,4.19,14.18,4.19,4.92,0,9.83-.52,14.59-1.56l.6-4.84c-6.01.54-10.59.82-13.61.82-2.59,0-4.72-.24-6.32-.72-1.83-.54-3.14-1.46-3.9-2.72-.68-1.14-1.08-2.35-1.19-3.6-.1-1.16-.04-2.61.18-4.45l.22-1.8h27.92l.27-2.2c.9-7.4-.13-12.81-3.07-16.08-2.46-2.73-6.42-4.12-11.74-4.12m8.04,16.67l-.21,1.72h-20.67l.27-2.17c.18-1.48.47-2.78.84-3.87.39-1.14.98-2.3,1.75-3.44.85-1.25,2.06-2.22,3.59-2.87,1.47-.63,3.26-.95,5.29-.95s3.88.33,5.27.98c1.53.71,2.59,1.77,3.16,3.16.48,1.18.77,2.38.86,3.56.07,1.16.02,2.46-.16,3.87"/>
            <polygon class="cls-1" points="236.79 0 230.05 55 237.23 55 243.96 0 236.79 0"/>
            <path class="cls-1"
                  d="m276.55,18.48c-1.78-1.95-5.69-2.95-11.63-2.95-2.85,0-5.7.25-8.46.75-2.26.41-4.01.81-5.19,1.19l-.5,4.11c4.14-.42,7.99-.63,11.46-.63,4.07,0,6.45.52,7.68,1.67,1.3,1.21,1.7,3.37,1.29,6.79l-.44,3.59h-5.93c-2.48,0-4.62.07-6.37.21-1.71.14-3.45.46-5.16.94-1.64.46-3,1.1-4.04,1.91-1.02.79-1.91,1.88-2.64,3.23-.74,1.37-1.24,3.06-1.48,5.03l-.18,1.53c-.43,3.5.1,6.11,1.59,7.75,1.49,1.65,4.07,2.49,7.67,2.49,4.69,0,8.98-1.21,12.76-3.6l2.3-1.45-.49,3.96h6.32l3.19-26.02c.61-5.02.03-8.55-1.74-10.5m-7.38,30.08l-.45.23c-3.24,1.8-6.79,2.72-10.54,2.72-2.17,0-3.85-.46-5.02-1.36-1.33-1.02-1.86-2.72-1.57-5.03l.22-1.78c.37-3.03,1.55-5.07,3.5-6.04,1.74-.88,4.67-1.32,8.69-1.32h6.7l-1.54,12.57Z"/>
            <path class="cls-1"
                  d="m19.81,18.17c-.34,2.72-2.83,4.93-5.55,4.93s-4.64-2.21-4.3-4.93c.34-2.72,2.82-4.92,5.55-4.92s4.65,2.21,4.3,4.92"/>
            <path class="cls-1"
                  d="m29.97,29.49c-.34,2.72-2.82,4.93-5.54,4.93s-4.65-2.2-4.31-4.93c.34-2.72,2.82-4.92,5.54-4.92s4.65,2.21,4.3,4.92"/>
            <path class="cls-1"
                  d="m31.39,18.17c-.34,2.72-2.82,4.93-5.54,4.93s-4.65-2.21-4.3-4.93c.34-2.72,2.82-4.92,5.54-4.92s4.65,2.21,4.3,4.92"/>
            <path class="cls-1"
                  d="m9.89,6.84c-.34,2.72-2.82,4.93-5.54,4.93S-.3,9.56.04,6.84C.39,4.12,2.86,1.92,5.58,1.92s4.65,2.21,4.31,4.93"/>
            <path class="cls-1"
                  d="m21.35,6.84c-.34,2.72-2.83,4.93-5.55,4.93s-4.64-2.21-4.3-4.93c.34-2.72,2.83-4.93,5.55-4.93s4.64,2.21,4.3,4.93"/>
            <path class="cls-1"
                  d="m32.82,6.84c-.34,2.72-2.82,4.93-5.54,4.93s-4.65-2.21-4.3-4.93c.34-2.72,2.82-4.93,5.54-4.93s4.65,2.21,4.3,4.93"/>
        </g>
    </g>
</svg>